<svg version="1" xmlns="http://www.w3.org/2000/svg" width="533.333" height="533.333" viewBox="0 0 400.000000 400.000000"><path d="M185.9 5.4c-8.6 2.8-14.6 6.5-20 12.3-8.3 8.8-12.7 19.1-13.3 30.9-1.1 21.6 13.3 41.6 34.4 47.9 7.4 2.2 19.1 2 26.8-.4 15.7-4.8 28.7-18.8 32.2-34.6 1.2-5.2 1.4-15.2.6-19.4-2-9.3-8.2-20.7-14.5-26.4C219.7 4.3 201.6.3 185.9 5.4zM129 28.6C100.5 40.2 74.6 58.8 56 81c-3 3.6-5.7 6.7-6 7-.3.3-2.4 3.2-4.7 6.4l-4.2 5.9 13.6 7.9c7.4 4.3 13.9 7.8 14.4 7.8s2.8-1.7 5.2-3.8C90.1 98.1 110 85.8 129.8 78c4.5-1.8 8.2-3.4 8.2-3.7 0-.2-.7-2-1.5-4-3.5-8.3-3.8-25.2-.6-36.8 1.2-4.3 2-7.9 1.9-8.1-.2-.2-4.2 1.3-8.8 3.2zM261.6 27.1c1 1.3 2.3 5.8 3.9 13.2.7 3.6.7 16.2 0 20.2-.3 1.6-1.2 5.7-2.1 8.9-.8 3.2-1.3 6-1.2 6.1.2.2 3.9 1.7 8.3 3.4 17.4 7 36.1 18.2 51.3 30.9l8.4 6.9 9.6-5.7c5.4-3.1 11.6-6.8 14-8.2l4.3-2.5-7.5-9.9c-19.3-25.5-44.4-45.5-73.6-58.5-12.3-5.5-17.1-7-15.4-4.8zM27.9 124.2C22.6 134.7 16.3 154 13.4 169c-2.4 12.5-2.9 18.8-2.9 35 0 14.7.4 21.3 2.1 32.2l.7 4.7 7.5-6.9c8.4-7.8 19.9-14 29.5-16.1l5.9-1.3-.6-4.5c-1.8-13.6-2.1-18.2-2-35.6.1-14.4.7-21.6 2.2-29.5 1.1-5.8 1.9-10.6 1.8-10.6 0-.1-6.3-3.8-13.9-8.2l-13.7-8-2.1 4zM355.4 128.2l-14.1 8.1.9 4.6c.5 2.5 1.1 6.1 1.4 8 .3 1.8.7 4.3 1 5.5 2.4 12.3 2.1 39.6-.6 56.2-1 5.9-.4 7.3 2.7 7.4 2.6 0 14 4.4 19.3 7.4 3 1.7 8.7 6.2 12.7 10s7.3 6.2 7.4 5.5c0-.8.2-2.3.4-3.4.3-1.1.7-4.7 1-8 .4-3.3.9-6.7 1.1-7.5.6-1.8.5-30.3-.1-34.5-1.2-8.8-2.5-17.3-3-19.5-.3-1.4-.7-3.4-.9-4.5-1.8-8.8-7.2-25.4-11.9-35.8l-3.3-7.6-14 8.1zM53 236.9c-9 2.9-14.1 6-20.5 12.5-24.2 24.4-15.5 64.8 16.6 77.7 6.9 2.7 20.9 3.7 27.6 1.9 17.6-4.8 31.5-18.8 35.4-35.6 6.8-29.7-16.2-58.6-46.5-58.3-3.9 0-9.6.8-12.6 1.8zM322.7 236.7c-11.8 2.6-22.7 10-29 19.6-12.7 19.1-10.3 44.1 5.8 60.3 19.1 19.2 48.7 18.7 68.1-1.3 4.9-5 9.9-14.7 11.5-22.2 1.4-6.9.7-19.1-1.6-25.6-7.9-22.5-31.9-36-54.8-30.8zM110.7 331.4c-7.3 6.9-19.4 13.6-28.2 15.6-7.9 1.8-7.8 1.8-6.3 3.2 12.2 11.6 37.8 26.7 58.1 34.2 9.4 3.5 25.8 7.9 34.2 9.1 2.2.3 5.4.8 7 1 1.7.3 5.1.7 7.8 1 4.4.5 4.7.3 4.7-1.7.1-3.3.1-23.8.1-27.4-.1-3-.4-3.2-9.3-6.4-18.1-6.3-38.7-17.8-53.5-29.6-3.7-2.9-7-5.4-7.3-5.4-.3.1-3.5 2.9-7.3 6.4zM278.5 326c-.4.6-3.6 3.3-7.3 6-3.7 2.7-7.1 5.3-7.7 5.8-.9.7-4.7 3-18.3 11.1-2.9 1.7-5.6 3.1-6 3.1-.4 0-2 .7-3.7 1.6-3.6 2-20.4 8.5-22.5 8.9-1.3.2-1.5 2.9-1.8 16.8l-.2 16.6 4.7-.5c20.6-2.1 40.1-6.9 55.8-13.7 16-6.9 35.3-18.5 46.9-28l4.8-4.1-7.3-2.1c-10.8-3.1-21.3-9-28.8-16.2-6.8-6.5-7.6-7-8.6-5.3z"/></svg>